<svg xmlns="http://www.w3.org/2000/svg" width="45" height="36" viewBox="0 0 45 36">
  <path id="Icon_awesome-plane-arrival" data-name="Icon awesome-plane-arrival" d="M43.875,31.5H1.125A1.125,1.125,0,0,0,0,32.625v2.25A1.125,1.125,0,0,0,1.125,36h42.75A1.125,1.125,0,0,0,45,34.875v-2.25A1.125,1.125,0,0,0,43.875,31.5ZM3.151,14.46l6.24,5.625a4.4,4.4,0,0,0,1.791.979L31.4,26.574a10.751,10.751,0,0,0,5.7.1c2.086-.581,3.054-1.491,3.322-2.511s-.122-2.3-1.643-3.864a10.872,10.872,0,0,0-4.98-2.812l-6.856-1.868L19.884,2.125a1.169,1.169,0,0,0-.82-.837L14.488.041A1.161,1.161,0,0,0,13.032,1.2L16.4,12.743,9.215,10.785,7.275,6.012a1.163,1.163,0,0,0-.775-.7L3.707,4.553A1.162,1.162,0,0,0,2.25,5.669l.016,7.156A2.425,2.425,0,0,0,3.151,14.46Z" transform="translate(0 0)" fill="#fff"/>
</svg>
