<svg xmlns="http://www.w3.org/2000/svg" width="45.001" height="33.751" viewBox="0 0 45.001 33.751">
  <path id="Icon_awesome-plane-departure" data-name="Icon awesome-plane-departure" d="M43.875,31.5H1.125A1.125,1.125,0,0,0,0,32.625v2.25A1.125,1.125,0,0,0,1.125,36h42.75A1.125,1.125,0,0,0,45,34.875v-2.25A1.125,1.125,0,0,0,43.875,31.5ZM5.664,24a2.319,2.319,0,0,0,1.711.753l9.179-.013a4.614,4.614,0,0,0,2.084-.5L39.1,13.854a11.953,11.953,0,0,0,4.712-4.1c1.287-2,1.427-3.452.919-4.475s-1.74-1.777-4.1-1.93a11.811,11.811,0,0,0-6.067,1.37L27.638,8.233,12.26,2.463a1.251,1.251,0,0,0-1.266-.078L6.372,4.731a1.285,1.285,0,0,0-.364,2.006l10.984,6.9L9.735,17.318,4.648,14.754a1.252,1.252,0,0,0-1.13,0L.7,16.187a1.285,1.285,0,0,0-.392,1.974Z" transform="translate(0 -2.249)" fill="#fff"/>
</svg>
